<svg xmlns="http://www.w3.org/2000/svg"  viewBox="0 0 64 64" width="64px" height="64px" baseProfile="basic"><ellipse cx="32" cy="61" opacity=".3" rx="28" ry="3"/><path fill="#9c34c2" d="M18.998,15c-9.39,0.022-16.984,7.652-16.962,17.042c0.022,9.359,7.603,16.94,16.962,16.962	c9.39-0.022,16.984-7.652,16.962-17.042C35.938,22.603,28.357,15.022,18.998,15z"/><path fill="#fff" d="M10.531,23.535c2.262-2.271,5.272-3.527,8.479-3.535 c2.503-0.006,4.554-1.856,4.914-4.258c-1.559-0.476-3.212-0.738-4.926-0.742c-9.39,0.022-16.984,7.652-16.962,17.042 c0.004,1.714,0.267,3.366,0.742,4.924c2.412-0.362,4.264-2.426,4.258-4.936C7.028,28.824,8.27,25.808,10.531,23.535z" opacity=".3"/><path d="M35.96,31.962c-0.004-1.714-0.267-3.366-0.742-4.924c-2.412,0.362-4.264,2.426-4.258,4.936 c0.008,3.206-1.233,6.223-3.495,8.495c-2.262,2.271-5.272,3.527-8.479,3.535c-2.503,0.006-4.554,1.856-4.914,4.258 c1.559,0.476,3.212,0.738,4.926,0.742C28.388,48.982,35.982,41.352,35.96,31.962z" opacity=".15"/><path fill="#9c34c2" d="M45.5,16c-4.152,0.022-7.51,7.203-7.5,16.041c0.01,8.807,3.362,15.941,7.5,15.963	c4.152-0.022,7.51-7.203,7.5-16.041C52.99,23.156,49.638,16.021,45.5,16z"/><path fill="#9c34c2" d="M58.5,17c-1.933-0.021-3.504,6.679-3.509,14.965c-0.005,8.285,1.558,15.019,3.491,15.039	c0.006,0,0.012,0,0.017,0c1.933,0.021,3.504-6.679,3.509-14.965C62.014,23.754,60.45,17.021,58.517,17C58.512,17,58.506,17,58.5,17z"/><path fill="none" stroke="#fff" stroke-linecap="round" stroke-linejoin="round" stroke-miterlimit="10" stroke-width="3" d="M6.932,26.007c0.64-1.289,1.491-2.48,2.536-3.529c1.048-1.053,2.239-1.911,3.528-2.558"/></svg>