<?xml version="1.0" encoding="iso-8859-1"?>
<!-- Uploaded to: SVG Repo, www.svgrepo.com, Generator: SVG Repo Mixer Tools -->
<!DOCTYPE svg PUBLIC "-//W3C//DTD SVG 1.1//EN" "http://www.w3.org/Graphics/SVG/1.1/DTD/svg11.dtd">
<svg fill="#000000" version="1.1" id="Capa_1" xmlns="http://www.w3.org/2000/svg" xmlns:xlink="http://www.w3.org/1999/xlink" 
	 width="800px" height="800px" viewBox="0 0 108.336 108.336"
	 xml:space="preserve">
<g>
	<path d="M54.168,0C24.3,0,0,24.3,0,54.168c0,29.869,24.3,54.168,54.168,54.168s54.168-24.299,54.168-54.168
		C108.336,24.3,84.036,0,54.168,0z M91.701,91.611c-10.413,10.371-22.926,15.559-37.533,15.559c11.909,0,22.117-5.188,30.628-15.559
		c8.511-10.373,12.767-22.885,12.767-37.532c0-14.608-4.256-27.107-12.767-37.503C76.285,6.184,66.077,0.987,54.168,0.987
		c14.607,0,27.12,5.197,37.533,15.588c10.414,10.396,15.621,22.895,15.621,37.503C107.322,68.727,102.113,81.238,91.701,91.611z"/>
</g>
</svg>